<svg width="51" height="59" fill="none" xmlns="http://www.w3.org/2000/svg"><circle cx="24.538" cy="24.538" r="24.538" fill="#C4C4C4" fill-opacity=".28"/><path d="M45.921 8.76H22.597c-2.461 0-4.58 1.77-4.58 4.078V54.42c0 2.308 2.119 4.079 4.58 4.079H45.92c2.462 0 4.58-1.77 4.58-4.078V12.837c0-2.308-2.118-4.079-4.579-4.079zM20.87 16.257h26.778v29.869H20.87V16.258zm1.727-4.874H45.92c1.017 0 1.728.712 1.728 1.454v.795H20.87v-.795c0-.742.711-1.454 1.727-1.454zM45.92 55.875H22.597c-1.016 0-1.727-.712-1.727-1.453v-5.67h26.778v5.67c0 .741-.712 1.453-1.727 1.453z" fill="#FDCF30" stroke="#FDCF30"/><path d="M34.259 48.564c-2.255 0-4.204 1.622-4.204 3.75 0 2.127 1.949 3.749 4.204 3.749s4.204-1.622 4.204-3.75c0-2.127-1.949-3.749-4.204-3.749zm0 4.874c-.809 0-1.352-.564-1.352-1.125 0-.56.543-1.124 1.352-1.124s1.352.564 1.352 1.124c0 .56-.543 1.125-1.352 1.125zm-3.704-39.617h3.704c.725 0 1.426-.527 1.426-1.312s-.701-1.313-1.426-1.313h-3.704c-.724 0-1.426.528-1.426 1.313 0 .784.702 1.312 1.426 1.312z" fill="#FDCF30" stroke="#FDCF30"/><path d="M37.037 13.821h.926c.725 0 1.426-.527 1.426-1.312s-.701-1.313-1.426-1.313h-.926c-.725 0-1.426.528-1.426 1.313 0 .784.701 1.312 1.426 1.312z" fill="#FDCF30" stroke="#FDCF30"/></svg>