<svg width="51" height="56" fill="none" xmlns="http://www.w3.org/2000/svg"><circle cx="21.662" cy="21.662" r="21.662" fill="#C4C4C4" fill-opacity=".28"/><path d="M42.506 28.383h-17.03a1.181 1.181 0 100 2.362h17.03a1.181 1.181 0 100-2.362zm-17.029-3.087h6.811a1.181 1.181 0 100-2.363h-6.811a1.181 1.181 0 100 2.363zm17.029 8.536h-17.03a1.181 1.181 0 100 2.362h17.03a1.181 1.181 0 100-2.362zm0 5.45h-17.03a1.181 1.181 0 100 2.362h17.03a1.181 1.181 0 100-2.362zm0 5.449h-17.03a1.181 1.181 0 100 2.363h17.03a1.181 1.181 0 100-2.363z" fill="#FDCF30" stroke="#FDCF30"/><path d="M40.418 13.543l-.147-.146H17.484v41.871H50.5V23.625l-.147-.146-9.935-9.936zM39.1 25.296h9.037v27.61H19.846V15.759h18.755v9.537h.5zm1.862-2.363V17.43l5.504 5.504h-5.504z" fill="#FDCF30" stroke="#FDCF30"/></svg>