<svg width="53" height="58" fill="none" xmlns="http://www.w3.org/2000/svg"><circle cx="22.66" cy="22.66" r="22.66" fill="#C4C4C4" fill-opacity=".28"/><path d="M30.377 13.5C18.314 13.5 8.5 23.314 8.5 35.377c0 12.063 9.814 21.877 21.877 21.877 12.063 0 21.877-9.814 21.877-21.877 0-12.063-9.814-21.877-21.877-21.877zm0 41.329c-10.725 0-19.452-8.727-19.452-19.452 0-10.725 8.727-19.452 19.452-19.452 10.725 0 19.452 8.727 19.452 19.452 0 10.725-8.727 19.452-19.452 19.452z" fill="#FDCF30" stroke="#FDCF30"/><path d="M32.23 20.34c-.67 0-1.213.543-1.213 1.213v15.89H20.828a1.212 1.212 0 100 2.425H32.23c.669 0 1.212-.543 1.212-1.213V21.553c0-.67-.543-1.212-1.212-1.212z" fill="#FDCF30" stroke="#FDCF30"/></svg>