<svg width="52" height="59" fill="none" xmlns="http://www.w3.org/2000/svg"><circle cx="22.907" cy="22.907" r="22.907" fill="#C4C4C4" fill-opacity=".28"/><path d="M51 28.025h-8.144v-9.353c0-5.84-5.106-10.528-11.305-10.528s-11.305 4.688-11.305 10.528v9.353h-7.78v30.39H51.5v-30.39H51zm-28.025-9.353c0-4.259 3.804-7.8 8.576-7.8s8.576 3.541 8.576 7.8v9.353H22.975v-9.353zM48.77 55.686H15.195v-2.458h33.576v2.458zM15.195 50.5V30.754h33.576V50.5H15.195z" fill="#FDCF30" stroke="#FDCF30"/><path d="M31.983 34.94a3.961 3.961 0 00-3.958 3.958v5.186a3.961 3.961 0 003.958 3.958 3.961 3.961 0 003.958-3.958v-5.186a3.961 3.961 0 00-3.958-3.958zm1.229 9.144a1.23 1.23 0 01-1.229 1.23 1.23 1.23 0 01-1.229-1.23v-5.186a1.23 1.23 0 011.229-1.229 1.23 1.23 0 011.229 1.229v5.186z" fill="#FDCF30" stroke="#FDCF30"/></svg>