<svg width="21" height="19" fill="none" xmlns="http://www.w3.org/2000/svg"><path d="M19.25 2.375H1.75c-.965 0-1.75.71-1.75 1.583v11.084c0 .873.785 1.583 1.75 1.583h17.5c.965 0 1.75-.71 1.75-1.583V3.958c0-.873-.785-1.583-1.75-1.583zm-17.5.792h17.5c.064 0 .121.02.182.033a2277.838 2277.838 0 01-8.297 6.846 1.02 1.02 0 01-.635.246c-.275 0-.497-.134-.635-.247A2294.467 2294.467 0 011.568 3.2c.06-.012.117-.033.182-.033zM.875 15.042V3.958c0-.077.026-.148.049-.218 1.16.96 4.665 3.86 6.938 5.73-2.266 1.76-5.772 4.769-6.94 5.777-.021-.067-.047-.133-.047-.206zm18.375.791H1.75c-.07 0-.132-.022-.197-.036 1.208-1.042 4.736-4.067 6.962-5.79.29.239.555.456.764.626.36.295.783.45 1.221.45.438 0 .86-.155 1.22-.45.21-.17.475-.387.765-.625 2.226 1.722 5.754 4.747 6.962 5.79-.065.013-.127.035-.197.035zm.875-.791c0 .073-.026.139-.046.206-1.17-1.009-4.675-4.016-6.94-5.777 2.272-1.87 5.777-4.77 6.937-5.732.023.071.049.142.049.22v11.083z" fill="#606060"/></svg>