<svg width="51" height="56" fill="none" xmlns="http://www.w3.org/2000/svg"><circle cx="21.722" cy="21.722" r="21.722" fill="#C4C4C4" fill-opacity=".28"/><path d="M22.889 49.222l-.354-.354.354.354a1.216 1.216 0 000-1.721l-3.443-3.443 1.865-1.865 4.877 4.877a1.216 1.216 0 001.722 0 1.216 1.216 0 000-1.721l-4.878-4.877 6.823-6.823a11.93 11.93 0 008.67 3.737c6.603 0 11.975-5.372 11.975-11.976 0-6.603-5.372-11.975-11.976-11.975-6.603 0-11.975 5.372-11.975 11.975 0 2.312.66 4.472 1.799 6.304L9.692 50.37l.353.353-.353-.353a1.216 1.216 0 101.722 1.72l2.725-2.725 4.877 4.877a1.215 1.215 0 001.721 0l-.353-.353.353.353a1.216 1.216 0 000-1.72l-4.877-4.878 1.865-1.865 3.443 3.443a1.215 1.215 0 001.721 0zm15.635-14.27c-5.26 0-9.54-4.281-9.54-9.542 0-5.26 4.28-9.541 9.54-9.541 5.261 0 9.541 4.28 9.541 9.541s-4.28 9.541-9.54 9.541z" fill="#FDCF30" stroke="#FDCF30"/></svg>