<svg width="21" height="21" fill="none" xmlns="http://www.w3.org/2000/svg"><path d="M10.5 0c-3.86 0-7 3.14-7 7 0 1.159.29 2.308.84 3.326l5.777 10.448a.437.437 0 00.766 0l5.779-10.45A7.013 7.013 0 0017.5 7c0-3.86-3.14-7-7-7zm5.394 9.903L10.5 19.658l-5.392-9.75A6.133 6.133 0 014.375 7 6.132 6.132 0 0110.5.875 6.132 6.132 0 0116.625 7a6.13 6.13 0 01-.731 2.903z" fill="#606060"/><path d="M10.5 3.5C8.57 3.5 7 5.07 7 7s1.57 3.5 3.5 3.5S14 8.93 14 7s-1.57-3.5-3.5-3.5zm0 6.125A2.628 2.628 0 017.875 7 2.628 2.628 0 0110.5 4.375 2.628 2.628 0 0113.125 7 2.628 2.628 0 0110.5 9.625z" fill="#606060"/></svg>