<svg width="51" height="56" fill="none" xmlns="http://www.w3.org/2000/svg"><circle cx="22.022" cy="22.022" r="22.022" fill="#C4C4C4" fill-opacity=".28"/><path d="M47.7 25.831a1.4 1.4 0 002.8 0v-7.202a5.007 5.007 0 00-5.001-5.002h-7.203a1.4 1.4 0 000 2.801H45.5c1.213 0 2.2.988 2.2 2.2v7.203zm-9.542 28.685h7.202a5.006 5.006 0 005.002-5v-7.203a1.4 1.4 0 00-2.8 0v7.202c0 1.213-.989 2.2-2.202 2.2h-7.202a1.4 1.4 0 000 2.801zm-27.008 0h7.201a1.4 1.4 0 000-2.8H11.15c-1.213 0-2.2-.988-2.2-2.2v-7.203a1.4 1.4 0 00-2.801 0v7.202a5.006 5.006 0 005.001 5.001zM6.148 25.831a1.4 1.4 0 002.8 0v-7.202c0-1.213.988-2.201 2.201-2.201h7.202a1.4 1.4 0 000-2.8H11.15a5.007 5.007 0 00-5.001 5v7.203zm12.204 19.683h19.806a3.204 3.204 0 003.201-3.201V36.91a1.4 1.4 0 00-2.8 0v5.402c0 .22-.18.4-.4.4H18.351c-.22 0-.4-.18-.4-.4V36.91a1.4 1.4 0 00-2.8 0v5.402c0 1.765 1.435 3.2 3.2 3.2z" fill="#FDCF30" stroke="#FDCF30"/><path d="M38.697 24.861a1.4 1.4 0 002.8 0V17.66c0-1.765-1.435-3.2-3.2-3.2H18.49a3.204 3.204 0 00-3.2 3.2v7.203a1.4 1.4 0 002.8 0V17.66c0-.22.18-.4.4-.4h19.806c.22 0 .4.18.4.4v7.203zM12.95 38.311h30.61a1.4 1.4 0 000-2.8H12.95a1.4 1.4 0 000 2.8z" fill="#FDCF30" stroke="#FDCF30"/></svg>