<svg width="47" height="47" fill="none" xmlns="http://www.w3.org/2000/svg"><path d="M47 23.5C47 10.543 36.458 0 23.5 0 10.543 0 0 10.543 0 23.5c0 6.844 2.943 13.013 7.628 17.311l-.023.02.763.643c.05.042.103.076.153.117.405.336.824.654 1.252.963a23.893 23.893 0 001.821 1.193 23.484 23.484 0 001.921 1.019l.121.054a23.292 23.292 0 005.84 1.827c.62.107 1.245.192 1.878.25.077.006.154.01.232.017.63.053 1.268.086 1.914.086.64 0 1.272-.033 1.899-.084.08-.007.159-.01.238-.018a23.74 23.74 0 001.861-.245l.16-.029a23.29 23.29 0 005.603-1.756c.065-.03.131-.058.196-.089a23.643 23.643 0 001.923-1.016c.46-.27.912-.554 1.35-.855.159-.107.314-.22.47-.334.375-.27.743-.548 1.102-.84.08-.064.165-.12.242-.185l.782-.653-.023-.02C44.03 36.576 47 30.38 47 23.5zm-45.29 0c0-12.016 9.774-21.79 21.79-21.79s21.79 9.774 21.79 21.79c0 6.475-2.84 12.296-7.339 16.29a6.401 6.401 0 00-.763-.459l-7.235-3.617a1.894 1.894 0 01-1.053-1.703v-2.527c.167-.207.344-.44.527-.698a17.412 17.412 0 002.236-4.378 3.101 3.101 0 001.781-2.81v-3.03c0-.74-.271-1.46-.758-2.024v-3.989c.045-.443.202-2.946-1.609-5.01-1.575-1.799-4.124-2.709-7.577-2.709-3.453 0-6.002.91-7.577 2.708-1.811 2.064-1.654 4.567-1.61 5.01v3.989a3.114 3.114 0 00-.757 2.024v3.03c0 .94.422 1.818 1.145 2.41.692 2.712 2.116 4.764 2.643 5.46v2.473c0 .697-.38 1.338-.993 1.673L9.594 39.3a6.176 6.176 0 00-.643.407C4.51 35.713 1.71 29.928 1.71 23.5zm34.573 17.631a21.82 21.82 0 01-.912.628c-.142.092-.282.185-.427.274-.403.25-.814.487-1.232.71l-.279.142a21.84 21.84 0 01-2.98 1.262c-.036.012-.072.025-.109.036a21.77 21.77 0 01-1.627.472l-.005.001c-.554.137-1.114.25-1.678.343l-.047.01c-.53.085-1.065.148-1.602.195l-.285.021c-.531.04-1.064.066-1.6.066-.542 0-1.082-.027-1.62-.067-.092-.007-.186-.013-.278-.021a22.16 22.16 0 01-1.615-.2l-.072-.012a21.713 21.713 0 01-3.324-.83c-.033-.01-.068-.023-.1-.034a22.104 22.104 0 01-1.592-.61l-.011-.004a22.29 22.29 0 01-1.457-.698c-.063-.032-.126-.063-.187-.096a21.993 21.993 0 01-1.657-.987 21.69 21.69 0 01-1.144-.798c-.038-.029-.075-.06-.113-.088l.082-.047 6.757-3.685a3.614 3.614 0 001.884-3.174v-3.078l-.198-.238c-.018-.021-1.866-2.268-2.564-5.311l-.078-.339-.291-.189a1.416 1.416 0 01-.657-1.19v-3.029c0-.397.168-.767.476-1.045l.282-.254v-4.76l-.008-.112c-.003-.02-.255-2.076 1.193-3.726 1.236-1.408 3.353-2.124 6.292-2.124 2.928 0 5.038.71 6.277 2.108 1.446 1.633 1.21 3.726 1.208 3.743l-.008 4.872.282.255c.307.277.476.648.476 1.045v3.03c0 .609-.414 1.162-1.009 1.345l-.425.131-.136.423a15.81 15.81 0 01-2.133 4.3c-.224.316-.442.597-.63.811l-.211.242v3.16c0 1.378.765 2.617 1.998 3.233l7.235 3.617.137.071c-.092.07-.186.133-.278.2z" fill="#606060"/></svg>